# xmcd CD database file
# 
# Track frame offsets:
# 	150
# 	12431
# 	25969
# 	35326
# 	44900
# 	57377
# 	68324
# 	79026
# 	92995
# 	105697
# 	127657
# 	140134
# 	154360
# 	169828
# 	189064
# 
# Disc length: 2737 seconds
# 
# Submitted via: Nero 6, 6, 1, 15
# 
# Revision: 0
# Processed by: cddbd v1.5.2PL0 Copyright (c) Steve Scherf et al.
#
DISCID=c60aaf0f
DTITLE=Various Artist - Classic Bluegrass Collection, Volume 2 [CD-2 of 2)
DYEAR=1900
DGENRE=
TTITLE0=Lester Flatt and Earl Scruggs And The Foggy Mountain Boys - Foggy Mountai
TTITLE0=n Breakdown[Lester Flatt and Earl Scruggs And The Foggy Mountain Boys]
TTITLE1=The Osborne Brothers - Ruby, Are You Mad[The Osborne Brothers]
TTITLE2=The Dillards - Dooley[The Dillards]
TTITLE3=Jim and Jesse - Nine Pound Hammer[Jim and Jesse]
TTITLE4=Ralph Stanley - Little Maggie[Ralph Stanley]
TTITLE5=Bill Clifton - Darlin' Cory[Bill Clifton]
TTITLE6=Jim Eanes - I Wouldn't Change You If I Could[Jim Eanes]
TTITLE7=Bill Monroe - Kentucky Waltz[Bill Monroe}
TTITLE8=J.D. Crowe - Old Home Place[J.D. Crowe]
TTITLE9=The Nitty Gritty Dirt Band - Will The Circle Be Unbroken[The Nitty Grit
TTITLE9=ty Dirt Band]
TTITLE10=Doyle Lawson - The Little Moutain Church[Doyle Lawson]
TTITLE11=Vince Gill - High Lonesome Sound[Vince Gill]
TTITLE12=The Boys From Indiana - Atlanta Is Burning[The Boys From Indiana]
TTITLE13=Lynn Morris - Mana's Hand[Lynn Morris]
TTITLE14=The Seldom Scene - Wait A Minute[The Seldom Scene]
EXTD=
EXTT0=
EXTT1=
EXTT2=
EXTT3=
EXTT4=
EXTT5=
EXTT6=
EXTT7=
EXTT8=
EXTT9=
EXTT10=
EXTT11=
EXTT12=
EXTT13=
EXTT14=
PLAYORDER=
